<svg xmlns="http://www.w3.org/2000/svg" width="120" height="72" viewBox="0 0 120 72" id="el__7YtejWzz"><style>@-webkit-keyframes kf_el_YnEJvi4HADo_an_rwLfkbtYz{0%{-webkit-transform: translate(16.2578125px, 29.1015625px) scale(0.7, 0.7) translate(-16.2578125px, -29.1015625px);transform: translate(16.2578125px, 29.1015625px) scale(0.7, 0.7) translate(-16.2578125px, -29.1015625px);}5%{-webkit-transform: translate(16.2578125px, 29.1015625px) scale(1, 1) translate(-16.2578125px, -29.1015625px);transform: translate(16.2578125px, 29.1015625px) scale(1, 1) translate(-16.2578125px, -29.1015625px);}20%{-webkit-transform: translate(16.2578125px, 29.1015625px) scale(1, 1) translate(-16.2578125px, -29.1015625px);transform: translate(16.2578125px, 29.1015625px) scale(1, 1) translate(-16.2578125px, -29.1015625px);}25%{-webkit-transform: translate(16.2578125px, 29.1015625px) scale(0.7, 0.7) translate(-16.2578125px, -29.1015625px);transform: translate(16.2578125px, 29.1015625px) scale(0.7, 0.7) translate(-16.2578125px, -29.1015625px);}100%{-webkit-transform: translate(16.2578125px, 29.1015625px) scale(0.7, 0.7) translate(-16.2578125px, -29.1015625px);transform: translate(16.2578125px, 29.1015625px) scale(0.7, 0.7) translate(-16.2578125px, -29.1015625px);}}@keyframes kf_el_YnEJvi4HADo_an_rwLfkbtYz{0%{-webkit-transform: translate(16.2578125px, 29.1015625px) scale(0.7, 0.7) translate(-16.2578125px, -29.1015625px);transform: translate(16.2578125px, 29.1015625px) scale(0.7, 0.7) translate(-16.2578125px, -29.1015625px);}5%{-webkit-transform: translate(16.2578125px, 29.1015625px) scale(1, 1) translate(-16.2578125px, -29.1015625px);transform: translate(16.2578125px, 29.1015625px) scale(1, 1) translate(-16.2578125px, -29.1015625px);}20%{-webkit-transform: translate(16.2578125px, 29.1015625px) scale(1, 1) translate(-16.2578125px, -29.1015625px);transform: translate(16.2578125px, 29.1015625px) scale(1, 1) translate(-16.2578125px, -29.1015625px);}25%{-webkit-transform: translate(16.2578125px, 29.1015625px) scale(0.7, 0.7) translate(-16.2578125px, -29.1015625px);transform: translate(16.2578125px, 29.1015625px) scale(0.7, 0.7) translate(-16.2578125px, -29.1015625px);}100%{-webkit-transform: translate(16.2578125px, 29.1015625px) scale(0.7, 0.7) translate(-16.2578125px, -29.1015625px);transform: translate(16.2578125px, 29.1015625px) scale(0.7, 0.7) translate(-16.2578125px, -29.1015625px);}}@-webkit-keyframes kf_el_YnEJvi4HADo_an_hB2zqhbCT{0%{-webkit-transform: translate(16.2578125px, 29.1015625px) translate(-16.2578125px, -29.1015625px) translate(0px, 0px);transform: translate(16.2578125px, 29.1015625px) translate(-16.2578125px, -29.1015625px) translate(0px, 0px);}8.33%{-webkit-transform: translate(16.2578125px, 29.1015625px) translate(-16.2578125px, -29.1015625px) translate(0px, -4px);transform: translate(16.2578125px, 29.1015625px) translate(-16.2578125px, -29.1015625px) translate(0px, -4px);}16.67%{-webkit-transform: translate(16.2578125px, 29.1015625px) translate(-16.2578125px, -29.1015625px) translate(0px, -4px);transform: translate(16.2578125px, 29.1015625px) translate(-16.2578125px, -29.1015625px) translate(0px, -4px);}25%{-webkit-transform: translate(16.2578125px, 29.1015625px) translate(-16.2578125px, -29.1015625px) translate(0px, 0px);transform: translate(16.2578125px, 29.1015625px) translate(-16.2578125px, -29.1015625px) translate(0px, 0px);}100%{-webkit-transform: translate(16.2578125px, 29.1015625px) translate(-16.2578125px, -29.1015625px) translate(0px, 0px);transform: translate(16.2578125px, 29.1015625px) translate(-16.2578125px, -29.1015625px) translate(0px, 0px);}}@keyframes kf_el_YnEJvi4HADo_an_hB2zqhbCT{0%{-webkit-transform: translate(16.2578125px, 29.1015625px) translate(-16.2578125px, -29.1015625px) translate(0px, 0px);transform: translate(16.2578125px, 29.1015625px) translate(-16.2578125px, -29.1015625px) translate(0px, 0px);}8.33%{-webkit-transform: translate(16.2578125px, 29.1015625px) translate(-16.2578125px, -29.1015625px) translate(0px, -4px);transform: translate(16.2578125px, 29.1015625px) translate(-16.2578125px, -29.1015625px) translate(0px, -4px);}16.67%{-webkit-transform: translate(16.2578125px, 29.1015625px) translate(-16.2578125px, -29.1015625px) translate(0px, -4px);transform: translate(16.2578125px, 29.1015625px) translate(-16.2578125px, -29.1015625px) translate(0px, -4px);}25%{-webkit-transform: translate(16.2578125px, 29.1015625px) translate(-16.2578125px, -29.1015625px) translate(0px, 0px);transform: translate(16.2578125px, 29.1015625px) translate(-16.2578125px, -29.1015625px) translate(0px, 0px);}100%{-webkit-transform: translate(16.2578125px, 29.1015625px) translate(-16.2578125px, -29.1015625px) translate(0px, 0px);transform: translate(16.2578125px, 29.1015625px) translate(-16.2578125px, -29.1015625px) translate(0px, 0px);}}@-webkit-keyframes kf_el_9WeutcQeqQE_an_wr0AiJMXs{0%{-webkit-transform: translate(16.2578125px, 0.1015625px) scale(0.7, 0.7) translate(-16.2578125px, -0.1015625px);transform: translate(16.2578125px, 0.1015625px) scale(0.7, 0.7) translate(-16.2578125px, -0.1015625px);}5%{-webkit-transform: translate(16.2578125px, 0.1015625px) scale(1, 1) translate(-16.2578125px, -0.1015625px);transform: translate(16.2578125px, 0.1015625px) scale(1, 1) translate(-16.2578125px, -0.1015625px);}20%{-webkit-transform: translate(16.2578125px, 0.1015625px) scale(1, 1) translate(-16.2578125px, -0.1015625px);transform: translate(16.2578125px, 0.1015625px) scale(1, 1) translate(-16.2578125px, -0.1015625px);}25%{-webkit-transform: translate(16.2578125px, 0.1015625px) scale(0.7, 0.7) translate(-16.2578125px, -0.1015625px);transform: translate(16.2578125px, 0.1015625px) scale(0.7, 0.7) translate(-16.2578125px, -0.1015625px);}100%{-webkit-transform: translate(16.2578125px, 0.1015625px) scale(0.7, 0.7) translate(-16.2578125px, -0.1015625px);transform: translate(16.2578125px, 0.1015625px) scale(0.7, 0.7) translate(-16.2578125px, -0.1015625px);}}@keyframes kf_el_9WeutcQeqQE_an_wr0AiJMXs{0%{-webkit-transform: translate(16.2578125px, 0.1015625px) scale(0.7, 0.7) translate(-16.2578125px, -0.1015625px);transform: translate(16.2578125px, 0.1015625px) scale(0.7, 0.7) translate(-16.2578125px, -0.1015625px);}5%{-webkit-transform: translate(16.2578125px, 0.1015625px) scale(1, 1) translate(-16.2578125px, -0.1015625px);transform: translate(16.2578125px, 0.1015625px) scale(1, 1) translate(-16.2578125px, -0.1015625px);}20%{-webkit-transform: translate(16.2578125px, 0.1015625px) scale(1, 1) translate(-16.2578125px, -0.1015625px);transform: translate(16.2578125px, 0.1015625px) scale(1, 1) translate(-16.2578125px, -0.1015625px);}25%{-webkit-transform: translate(16.2578125px, 0.1015625px) scale(0.7, 0.7) translate(-16.2578125px, -0.1015625px);transform: translate(16.2578125px, 0.1015625px) scale(0.7, 0.7) translate(-16.2578125px, -0.1015625px);}100%{-webkit-transform: translate(16.2578125px, 0.1015625px) scale(0.7, 0.7) translate(-16.2578125px, -0.1015625px);transform: translate(16.2578125px, 0.1015625px) scale(0.7, 0.7) translate(-16.2578125px, -0.1015625px);}}@-webkit-keyframes kf_el_9WeutcQeqQE_an_b6rbKX_Dl{0%{-webkit-transform: translate(16.2578125px, 0.1015625px) translate(-16.2578125px, -0.1015625px) translate(0px, 0px);transform: translate(16.2578125px, 0.1015625px) translate(-16.2578125px, -0.1015625px) translate(0px, 0px);}8.33%{-webkit-transform: translate(16.2578125px, 0.1015625px) translate(-16.2578125px, -0.1015625px) translate(0px, 4px);transform: translate(16.2578125px, 0.1015625px) translate(-16.2578125px, -0.1015625px) translate(0px, 4px);}16.67%{-webkit-transform: translate(16.2578125px, 0.1015625px) translate(-16.2578125px, -0.1015625px) translate(0px, 4px);transform: translate(16.2578125px, 0.1015625px) translate(-16.2578125px, -0.1015625px) translate(0px, 4px);}25%{-webkit-transform: translate(16.2578125px, 0.1015625px) translate(-16.2578125px, -0.1015625px) translate(0px, 0px);transform: translate(16.2578125px, 0.1015625px) translate(-16.2578125px, -0.1015625px) translate(0px, 0px);}100%{-webkit-transform: translate(16.2578125px, 0.1015625px) translate(-16.2578125px, -0.1015625px) translate(0px, 0px);transform: translate(16.2578125px, 0.1015625px) translate(-16.2578125px, -0.1015625px) translate(0px, 0px);}}@keyframes kf_el_9WeutcQeqQE_an_b6rbKX_Dl{0%{-webkit-transform: translate(16.2578125px, 0.1015625px) translate(-16.2578125px, -0.1015625px) translate(0px, 0px);transform: translate(16.2578125px, 0.1015625px) translate(-16.2578125px, -0.1015625px) translate(0px, 0px);}8.33%{-webkit-transform: translate(16.2578125px, 0.1015625px) translate(-16.2578125px, -0.1015625px) translate(0px, 4px);transform: translate(16.2578125px, 0.1015625px) translate(-16.2578125px, -0.1015625px) translate(0px, 4px);}16.67%{-webkit-transform: translate(16.2578125px, 0.1015625px) translate(-16.2578125px, -0.1015625px) translate(0px, 4px);transform: translate(16.2578125px, 0.1015625px) translate(-16.2578125px, -0.1015625px) translate(0px, 4px);}25%{-webkit-transform: translate(16.2578125px, 0.1015625px) translate(-16.2578125px, -0.1015625px) translate(0px, 0px);transform: translate(16.2578125px, 0.1015625px) translate(-16.2578125px, -0.1015625px) translate(0px, 0px);}100%{-webkit-transform: translate(16.2578125px, 0.1015625px) translate(-16.2578125px, -0.1015625px) translate(0px, 0px);transform: translate(16.2578125px, 0.1015625px) translate(-16.2578125px, -0.1015625px) translate(0px, 0px);}}#el__7YtejWzz *{-webkit-animation-duration: 2s;animation-duration: 2s;-webkit-animation-iteration-count: infinite;animation-iteration-count: infinite;-webkit-animation-play-state: running;animation-play-state: running;-webkit-animation-timing-function: cubic-bezier(0, 0, 1, 1);animation-timing-function: cubic-bezier(0, 0, 1, 1);}#el_ZlCqhJW0g9{fill: #38ae4c;fill-rule: evenodd;}#el_Wtg_mVyE9w{fill: #38ae4c;fill-rule: evenodd;}#el_HPF1EKf5e6{fill-rule: evenodd;fill: #406479;}#el_kIrETV5o6h{fill-rule: evenodd;fill: #406479;}#el_Q0tZEVyDvv{fill-rule: evenodd;fill: #406479;}#el_iFTPjrKd6k{fill-rule: evenodd;fill: #406479;}#el_svyW1QK1fT{fill-rule: evenodd;fill: #406479;}#el_BaiCGKznzU{fill-rule: evenodd;fill: #406479;}#el_8Gq5v_86c7{fill-rule: evenodd;fill: #406479;}#el_gOMbTX2usA{fill-rule: evenodd;fill: #406479;}#el_bSUqdxnV9V{fill-rule: evenodd;fill: #406479;}#el_B5dDG3ghv6{fill-rule: evenodd;fill: #406479;}#el_VbTZEbCvlo{fill: #406479;}#el_9vEevNzTUF-{fill-rule: evenodd;fill: #406479;}#el_cvi091f-hVr{fill-rule: evenodd;fill: #406479;}#el_g2_soHdNkbB{fill-rule: evenodd;fill: #406479;}#el_18c-9ZdGwRe{fill-rule: evenodd;fill: #406479;}#el_6beZR9k-mUk{fill-rule: evenodd;fill: #406479;}#el_NlZ-Xb33nyR{fill-rule: evenodd;fill: #406479;}#el_eZmE1ih_f89{fill: #406479;}#el_o8JQWz-9zfm{fill-rule: evenodd;fill: #406479;}#el_7ID5NtLHOgD{fill-rule: evenodd;fill: #406479;}#el_nodLScrcC7-{fill-rule: evenodd;fill: #406479;}#el_hM1vwPPxkSJ{fill-rule: evenodd;fill: #406479;}#el_M9NOEyyxijE{fill-rule: evenodd;fill: #406479;}#el_BD-YXeR6smy{fill-rule: evenodd;fill: #406479;}#el_m26byLfz39a{fill-rule: evenodd;fill: #406479;}#el_qyL7aTZD4jt{fill: #406479;}#el_sTWgChTdoF_{fill-rule: evenodd;fill: #406479;}#el_HfEdWcjdJdN{fill-rule: evenodd;fill: #406479;}#el_UkrSf_JLhdx{fill-rule: evenodd;fill: #406479;}#el_XzLtQ35gVGA{fill: #38ae4c;fill-rule: evenodd;}#el_U4UKDgpW9yq{fill: #38ae4c;fill-rule: evenodd;}#el_9WeutcQeqQE{fill-rule: evenodd;fill: #fff;}#el__7YtejWzz:hover #el_9WeutcQeqQE{}#el_AKU11rPBHDP{fill: #38ae4c;fill-rule: evenodd;}#el_YnEJvi4HADo{fill-rule: evenodd;fill: #fff;}#el__7YtejWzz:hover #el_YnEJvi4HADo{}#el_unm_cdRjt0G{fill: #38ae4c;fill-rule: evenodd;}#el_9WeutcQeqQE_an_b6rbKX_Dl{-webkit-animation-fill-mode: backwards;animation-fill-mode: backwards;-webkit-transform: translate(16.2578125px, 0.1015625px) translate(-16.2578125px, -0.1015625px) translate(0px, 0px);transform: translate(16.2578125px, 0.1015625px) translate(-16.2578125px, -0.1015625px) translate(0px, 0px);-webkit-animation-timing-function: cubic-bezier(0, 0, 1, 1);animation-timing-function: cubic-bezier(0, 0, 1, 1);}#el__7YtejWzz:hover #el_9WeutcQeqQE_an_b6rbKX_Dl{-webkit-animation-name: kf_el_9WeutcQeqQE_an_b6rbKX_Dl;animation-name: kf_el_9WeutcQeqQE_an_b6rbKX_Dl;}#el_9WeutcQeqQE_an_wr0AiJMXs{-webkit-animation-fill-mode: backwards;animation-fill-mode: backwards;-webkit-transform: translate(16.2578125px, 0.1015625px) scale(0.7, 0.7) translate(-16.2578125px, -0.1015625px);transform: translate(16.2578125px, 0.1015625px) scale(0.7, 0.7) translate(-16.2578125px, -0.1015625px);-webkit-animation-timing-function: cubic-bezier(0, 0, 1, 1);animation-timing-function: cubic-bezier(0, 0, 1, 1);}#el__7YtejWzz:hover #el_9WeutcQeqQE_an_wr0AiJMXs{-webkit-animation-name: kf_el_9WeutcQeqQE_an_wr0AiJMXs;animation-name: kf_el_9WeutcQeqQE_an_wr0AiJMXs;}#el_YnEJvi4HADo_an_hB2zqhbCT{-webkit-animation-fill-mode: backwards;animation-fill-mode: backwards;-webkit-transform: translate(16.2578125px, 29.1015625px) translate(-16.2578125px, -29.1015625px) translate(0px, 0px);transform: translate(16.2578125px, 29.1015625px) translate(-16.2578125px, -29.1015625px) translate(0px, 0px);-webkit-animation-timing-function: cubic-bezier(0, 0, 1, 1);animation-timing-function: cubic-bezier(0, 0, 1, 1);}#el__7YtejWzz:hover #el_YnEJvi4HADo_an_hB2zqhbCT{-webkit-animation-name: kf_el_YnEJvi4HADo_an_hB2zqhbCT;animation-name: kf_el_YnEJvi4HADo_an_hB2zqhbCT;}#el_YnEJvi4HADo_an_rwLfkbtYz{-webkit-animation-fill-mode: backwards;animation-fill-mode: backwards;-webkit-transform: translate(16.2578125px, 29.1015625px) scale(0.7, 0.7) translate(-16.2578125px, -29.1015625px);transform: translate(16.2578125px, 29.1015625px) scale(0.7, 0.7) translate(-16.2578125px, -29.1015625px);-webkit-animation-timing-function: cubic-bezier(0, 0, 1, 1);animation-timing-function: cubic-bezier(0, 0, 1, 1);}#el__7YtejWzz:hover #el_YnEJvi4HADo_an_rwLfkbtYz{-webkit-animation-name: kf_el_YnEJvi4HADo_an_rwLfkbtYz;animation-name: kf_el_YnEJvi4HADo_an_rwLfkbtYz;}</style><defs/><title>vidux_logo_animacio</title><g id="el_iL2rBXAvDz" data-name="Layer 2"><g id="el_jgR_nzj4MA"><path d="M.11386,17.985C.03886,16.84557,0,15.704,0,14.58376c0-1.03486.033-2.1.09744-3.1699a23.49277,23.49277,0,0,1,3.94521,3.29637A24.66309,24.66309,0,0,1,.11386,17.985Z" id="el_ZlCqhJW0g9"/><path d="M37.267,14.58376c0,1.64025-.08263,3.32705-.24175,4.98439-3.48956-.68378-5.81375-2.67942-8.01638-4.85792,2.21524-2.192,4.52021-4.19985,8.04372-4.87282C37.19375,11.43071,37.267,13.04089,37.267,14.58376Z" id="el_Wtg_mVyE9w"/><path d="M55.24549,55.78469V37.22493l-3.79681-.00148V55.78469A6.84841,6.84841,0,0,0,58.292,62.63V58.83533a3.052,3.052,0,0,1-3.04651-3.05064" id="el_HPF1EKf5e6"/><path d="M68.23093,41.01813H71.262v-3.7932h-3.0311a6.84247,6.84247,0,0,0-6.84173,6.84172l-.01081,11.72006A6.84007,6.84007,0,0,0,68.22011,62.63V58.83685a3.05307,3.05307,0,0,1-3.04852-3.05014c0-.93712.0107-8.989.0107-11.72006a3.05173,3.05173,0,0,1,3.04864-3.04852" id="el_kIrETV5o6h"/><path d="M32.15259,55.78469V37.22345H28.35737s-.00159,15.83018,0,18.56124A6.84421,6.84421,0,0,0,35.19959,62.63V58.83374a3.04941,3.04941,0,0,1-3.047-3.04905" id="el_Q0tZEVyDvv"/><path d="M40.79024,55.78671a3.05125,3.05125,0,0,1-3.04852,3.047V62.63a6.84825,6.84825,0,0,0,6.8432-6.8433V41.01813h3.03471V37.22345H40.79024Z" id="el_iFTPjrKd6k"/><path d="M53.34708,32.88687a2.70931,2.70931,0,1,0-2.70955-2.71005,2.71177,2.71177,0,0,0,2.70955,2.71005" id="el_svyW1QK1fT"/><path d="M119.85678,46.84382V37.22493h-3.7932v9.61889a3.05435,3.05435,0,0,1-3.04852,3.04862V53.6856a3.05358,3.05358,0,0,1,3.04852,3.04856v5.44263l3.7932.00159V56.73416a6.66367,6.66367,0,0,0-2.15956-4.91158,6.817,6.817,0,0,0,2.15956-4.97876" id="el_BaiCGKznzU"/><path d="M107.42232,46.84382V37.22493h-3.79369v9.61889a6.81735,6.81735,0,0,0,2.15957,4.97876,6.664,6.664,0,0,0-2.15957,4.91158v5.44422h3.79369V56.73416A3.053,3.053,0,0,1,110.471,53.6856V49.89244a3.0538,3.0538,0,0,1-3.04863-3.04862" id="el_8Gq5v_86c7"/><path d="M73.80974,55.78671a3.05308,3.05308,0,0,1-3.049,3.05014V62.63a6.842,6.842,0,0,0,6.84172-6.8433V30.17682h3.03832V26.38525h-6.831Z" id="el_gOMbTX2usA"/><path d="M94.93827,55.78671a3.0574,3.0574,0,0,1-3.04863,3.05014V62.63a6.84455,6.84455,0,0,0,6.84172-6.8433V37.22493H94.93467s0,15.83081.0036,18.56178" id="el_bSUqdxnV9V"/><path d="M86.297,55.78671V37.22493h-3.7932V55.78671A6.84231,6.84231,0,0,0,89.34553,62.63V58.83374a3.05059,3.05059,0,0,1-3.04852-3.047" id="el_B5dDG3ghv6"/><rect x="28.35737" y="67.83453" width="0.81526" height="4.16041" id="el_VbTZEbCvlo"/><path d="M32.892,68.618h-.88075v1.23836H32.892c.4988,0,.59864-.31753.59864-.62277,0-.30675-.09984-.61559-.59864-.61559m-.88075,2.011v1.36585h-.8246v-4.1604h1.72277a1.28067,1.28067,0,0,1,1.44774,1.39037,1.29489,1.29489,0,0,1-1.44774,1.40418Z" id="el_9vEevNzTUF-"/><path d="M39.4859,69.47537c1.1968.108,1.61318.43782,1.61318,1.24747,0,.73895-.46506,1.37966-1.83031,1.37966a5.26593,5.26593,0,0,1-1.42312-.21511v-.7835a5.00515,5.00515,0,0,0,1.43086.20836c.742,0,.9996-.21561.9996-.5822,0-.31605-.209-.44143-.86542-.49933-1.22345-.10754-1.63983-.38974-1.63983-1.14873,0-.7901.47527-1.355,1.74729-1.355a3.73921,3.73921,0,0,1,1.39037.21562v.76558a4.63233,4.63233,0,0,0-1.398-.19094c-.69087,0-.93361.17512-.93361.52233,0,.30162.25867.37592.909.43583" id="el_cvi091f-hVr"/><polygon points="45.627 70.255 43.588 70.255 43.588 71.211 45.901 71.211 45.901 71.995 42.765 71.995 42.765 67.835 45.901 67.835 45.901 68.618 43.588 68.618 43.588 69.475 45.627 69.475 45.627 70.255" id="el_g2_soHdNkbB"/><path d="M49.46587,67.727a3.34952,3.34952,0,0,1,1.30636.19982v.78138a4.09291,4.09291,0,0,0-1.31509-.19094c-.8573,0-1.12409.70769-1.12409,1.396,0,.69137.26679,1.39906,1.12409,1.39906a3.98271,3.98271,0,0,0,1.31509-.19094v.78191a3.35845,3.35845,0,0,1-1.30636.19928c-1.415,0-1.9819-.98993-1.9819-2.18931,0-1.1963.56688-2.18624,1.9819-2.18624" id="el_18c-9ZdGwRe"/><path d="M52.43857,70.61328V67.83453h.85572v2.77875c0,.508.38356.699.96538.699.58125,0,.96477-.19094.96477-.699V67.83453h.85571v2.77875c0,.9156-.55666,1.48922-1.82048,1.48922-1.26439,0-1.8211-.57362-1.8211-1.48922" id="el_6beZR9k-mUk"/><path d="M59.65213,68.618h-.95506v1.08005h.95506c.508,0,.60167-.24016.60167-.54027,0-.30163-.09362-.53978-.60167-.53978m-.02462,1.85433h-.93044v1.52257h-.82456v-4.1604H59.687c1.07332,0,1.43074.56641,1.43074,1.31455a1.25892,1.25892,0,0,1-.66466,1.182l.96276,1.66384h-.9971Z" id="el_NlZ-Xb33nyR"/><rect x="63.05816" y="67.83453" width="0.81527" height="4.16041" id="el_eZmE1ih_f89"/><polygon points="67.703 68.618 67.703 71.995 66.846 71.995 66.846 68.618 65.556 68.618 65.556 67.835 68.991 67.835 68.991 68.618 67.703 68.618" id="el_o8JQWz-9zfm"/><polygon points="74.51 67.835 72.73 70.514 72.73 71.995 71.906 71.995 71.906 70.524 70.118 67.835 71.142 67.835 72.313 69.773 73.487 67.835 74.51 67.835" id="el_7ID5NtLHOgD"/><path d="M79.59607,69.47537c1.19832.108,1.61258.43782,1.61258,1.24747,0,.73895-.46184,1.37966-1.82769,1.37966a5.276,5.276,0,0,1-1.42361-.21511v-.7835a5.01366,5.01366,0,0,0,1.43081.20836c.741,0,1.00015-.21561,1.00015-.5822,0-.31605-.21-.44143-.866-.49933-1.22284-.10754-1.63921-.38974-1.63921-1.14873,0-.7901.47314-1.355,1.74675-1.355a3.7199,3.7199,0,0,1,1.38839.21562v.76558a4.61427,4.61427,0,0,0-1.39708-.19094c-.69028,0-.93153.17512-.93153.52233,0,.30162.25716.37592.90648.43583" id="el_nodLScrcC7-"/><path d="M84.69153,68.51721c-.91771,0-1.1082.60736-1.1082,1.396,0,.79383.19049,1.39906,1.1082,1.39906.90486,0,1.10616-.60523,1.10616-1.39906,0-.78862-.2013-1.396-1.10616-1.396m0,3.58529c-1.44156,0-1.93887-.91422-1.93887-2.18931,0-1.272.49731-2.18624,1.93887-2.18624,1.44665,0,1.93725.91422,1.93725,2.18624C86.62878,71.18828,86.13818,72.1025,84.69153,72.1025Z" id="el_hM1vwPPxkSJ"/><polygon points="89.162 71.211 91.473 71.211 91.473 71.995 88.338 71.995 88.338 67.835 89.162 67.835 89.162 71.211" id="el_M9NOEyyxijE"/><path d="M92.9728,70.61328V67.83453h.85571v2.77875c0,.508.38455.699.96837.699.58072,0,.96325-.19094.96325-.699V67.83453H96.618v2.77875c0,.9156-.5577,1.48922-1.8211,1.48922-1.26492,0-1.82408-.57362-1.82408-1.48922" id="el_BD-YXeR6smy"/><polygon points="100.222 68.618 100.222 71.995 99.365 71.995 99.365 68.618 98.077 68.618 98.077 67.835 101.51 67.835 101.51 68.618 100.222 68.618" id="el_m26byLfz39a"/><rect x="103.19289" y="67.83453" width="0.81728" height="4.16041" id="el_qyL7aTZD4jt"/><path d="M107.83821,68.51721c-.91363,0-1.10419.60736-1.10419,1.396,0,.79383.19056,1.39906,1.10419,1.39906.90686,0,1.10608-.60523,1.10608-1.39906,0-.78862-.19922-1.396-1.10608-1.396m0,3.58529c-1.43753,0-1.93888-.91422-1.93888-2.18931,0-1.272.50135-2.18624,1.93888-2.18624,1.44663,0,1.93936.91422,1.93936,2.18624C109.77757,71.18828,109.28484,72.1025,107.83821,72.1025Z" id="el_sTWgChTdoF_"/><polygon points="114.472 71.995 112.302 69.364 112.309 71.995 111.485 71.995 111.485 67.835 112.06 67.835 114.232 70.465 114.223 67.835 115.046 67.835 115.046 71.995 114.472 71.995" id="el_HfEdWcjdJdN"/><path d="M118.426,69.47537c1.19928.108,1.61417.43782,1.61417,1.24747,0,.73895-.46605,1.37966-1.82978,1.37966a5.24185,5.24185,0,0,1-1.42212-.21511v-.7835a4.99594,4.99594,0,0,0,1.43081.20836c.73946,0,.99911-.21561.99911-.5822,0-.31605-.21048-.44143-.86652-.49933-1.22082-.10754-1.64073-.38974-1.64073-1.14873,0-.7901.47628-1.355,1.74831-1.355a3.74539,3.74539,0,0,1,1.39037.21562v.76558a4.63476,4.63476,0,0,0-1.3991-.19094c-.68978,0-.92994.17512-.92994.52233,0,.30162.25609.37592.90542.43583" id="el_UkrSf_JLhdx"/><path d="M16.52661,12.0038a2.70618,2.70618,0,1,0,2.707,2.70545A2.71032,2.71032,0,0,0,16.52661,12.0038Z" id="el_XzLtQ35gVGA"/><path d="M16.52563,9.62551c-5.20166.01483-7.835,2.386-10.56,5.08471,2.72509,2.69727,5.35839,5.0683,10.56005,5.08265,5.20215-.01435,7.83594-2.38538,10.56153-5.08265C24.36157,12.01149,21.72778,9.64034,16.52563,9.62551Zm.001,9.14459a4.06171,4.06171,0,1,1,4.063-4.06085A4.06059,4.06059,0,0,1,16.52661,18.7701Z" id="el_U4UKDgpW9yq"/><g id="el_9WeutcQeqQE_an_b6rbKX_Dl" data-animator-group="true" data-animator-type="0"><g id="el_9WeutcQeqQE_an_wr0AiJMXs" data-animator-group="true" data-animator-type="2"><path d="M27.2561,14.1025a19.39811,19.39811,0,0,0-10.57976-3,24.47537,24.47537,0,0,0-11.42024,3v-9s3.54051-5,11.27025-5,10.72975,5,10.72975,5Z" id="el_9WeutcQeqQE"/></g></g><path d="M.20787,9.91486A46.10525,46.10525,0,0,1,1.27722,3.1234c6.594-4.15481,28.088-4.17424,34.71251,0a43.82621,43.82621,0,0,1,.92592,5.35989c-3.97257.73185-6.62192,3.02921-8.86662,5.26779C25.316,11.0245,22.20543,8.25667,16.52569,8.27051c-5.68028-.01384-8.79031,2.754-11.52138,5.48057A22.28628,22.28628,0,0,0,.20787,9.91486Z" id="el_AKU11rPBHDP"/><g id="el_YnEJvi4HADo_an_hB2zqhbCT" data-animator-group="true" data-animator-type="0"><g id="el_YnEJvi4HADo_an_rwLfkbtYz" data-animator-group="true" data-animator-type="2"><path d="M5.2561,18.1025a49.80052,49.80052,0,0,0,10.57976,1,64.67628,64.67628,0,0,0,11.42024-1v6s-3.5405,5-11.27025,5-10.72975-5-10.72975-5Z" id="el_YnEJvi4HADo"/></g></g><path d="M36.87738,20.922a43.31674,43.31674,0,0,1-.88765,4.96545c-7.53711,4.74822-27.29979,4.67043-34.71251,0A45.22767,45.22767,0,0,1,.234,19.48463a23.12051,23.12051,0,0,0,4.7703-3.8158c2.73107,2.72646,5.8411,5.495,11.52138,5.48056,5.67974.01442,8.79026-2.75462,11.52334-5.48056C30.2784,17.89368,32.946,20.175,36.87738,20.922Z" id="el_unm_cdRjt0G"/></g></g></svg>